<svg width="657.9px" height="121.4px" xmlns="http://www.w3.org/2000/svg" viewBox="-78.94687499999998 14.300000000000004 657.89375 121.39999999999999" style="background: rgba(0, 0, 0, 0)" preserveAspectRatio="xMidYMid"><defs><linearGradient id="editing-gradient-gradient" x1="0" x2="1" y1="0.5" y2="0.5" gradientUnits="objectBoundingBox"><stop offset="0" stop-color="#758fb8"></stop><stop offset="1" stop-color="#e130e1"></stop></linearGradient></defs><g><g transform="matrix(1.2,0,0,1.4,-36,163.3)"><path d="M -1.6 -45.3 L -15.5 -45.3 L -7.4 -87.6 L 6.7 -87.6 L -1.6 -45.3 Z M 54.2 -44.1 L 54.2 -44.1 L 54.2 -44.1 Q 46.4 -44.1 46.4 -50.1 L 46.4 -50.1 L 46.4 -50.1 Q 46.4 -52.7 47.6 -57.8 L 47.6 -57.8 L 47.6 -57.8 Q 48.7 -62.9 49.1 -64.9 L 49.1 -64.9 L 49.1 -64.9 Q 50 -69.6 50 -71.1 L 50 -71.1 L 50 -71.1 Q 50 -74.3 47.5 -74.3 L 47.5 -74.3 L 47.5 -74.3 Q 45.9 -74.3 44.4 -72.1 L 44.4 -72.1 L 44.4 -72.1 Q 42.9 -69.9 42.2 -65.5 L 42.2 -65.5 L 38.2 -45.3 L 25.7 -44.1 L 29.2 -61.5 L 29.2 -61.5 Q 29.7 -64.3 30.2 -67.6 L 30.2 -67.6 L 30.2 -67.6 Q 30.8 -70.9 30.8 -71.4 L 30.8 -71.4 L 30.8 -71.4 Q 30.8 -74.3 28.6 -74.3 L 28.6 -74.3 L 28.6 -74.3 Q 27.1 -74.3 25.5 -72.2 L 25.5 -72.2 L 25.5 -72.2 Q 23.9 -70 23 -65.5 L 23 -65.5 L 19.1 -45.3 L 6.5 -44.1 L 13.2 -78 L 23.7 -79.3 L 22.6 -72.8 L 22.6 -72.8 Q 24.2 -76.2 27.3 -77.8 L 27.3 -77.8 L 27.3 -77.8 Q 30.4 -79.3 35.2 -79.3 L 35.2 -79.3 L 35.2 -79.3 Q 37.9 -79.3 39.7 -77.9 L 39.7 -77.9 L 39.7 -77.9 Q 41.5 -76.6 42.1 -74.4 L 42.1 -74.4 L 42.1 -74.4 Q 43.2 -76.6 46 -77.9 L 46 -77.9 L 46 -77.9 Q 48.7 -79.3 52.2 -79.3 L 52.2 -79.3 L 52.2 -79.3 Q 55.6 -79.3 57.3 -78.5 L 57.3 -78.5 L 57.3 -78.5 Q 59 -77.8 60 -76.6 L 60 -76.6 L 60 -76.6 Q 61.7 -74.3 61.7 -70.2 L 61.7 -70.2 L 61.7 -70.2 Q 61.7 -66.2 60 -57.8 L 60 -57.8 L 60 -57.8 Q 59.1 -53.7 59.1 -52.2 L 59.1 -52.2 L 59.1 -52.2 Q 59.1 -50.7 60 -49.8 L 60 -49.8 L 60 -49.8 Q 60.8 -48.9 62.1 -48.8 L 62.1 -48.8 L 62.1 -48.8 Q 61.5 -46.6 59.3 -45.3 L 59.3 -45.3 L 59.3 -45.3 Q 57.1 -44.1 54.2 -44.1 Z M 69.8 -47.3 L 69.8 -47.3 L 69.8 -47.3 Q 68.3 -48.9 67.7 -51.5 L 67.7 -51.5 L 67.7 -51.5 Q 67 -54.2 67 -58.5 L 67 -58.5 L 67 -58.5 Q 67 -62.7 68.5 -66.6 L 68.5 -66.6 L 68.5 -66.6 Q 69.9 -70.6 72.6 -73.4 L 72.6 -73.4 L 72.6 -73.4 Q 78.1 -79.3 87.2 -79.3 L 87.2 -79.3 L 87.2 -79.3 Q 90.5 -79.3 92.8 -78.2 L 92.8 -78.2 L 103.8 -79.3 L 99 -54.3 L 99 -54.3 Q 98.9 -53.5 98.9 -52.1 L 98.9 -52.1 L 98.9 -52.1 Q 98.9 -50.7 99.7 -49.8 L 99.7 -49.8 L 99.7 -49.8 Q 100.6 -48.9 101.9 -48.8 L 101.9 -48.8 L 101.9 -48.8 Q 101.2 -46.6 98.9 -45.3 L 98.9 -45.3 L 98.9 -45.3 Q 96.6 -44.1 93.9 -44.1 L 93.9 -44.1 L 93.9 -44.1 Q 91.3 -44.1 89.5 -45 L 89.5 -45 L 89.5 -45 Q 87.8 -46 87.3 -47.7 L 87.3 -47.7 L 87.3 -47.7 Q 86.2 -46.1 84.1 -45.1 L 84.1 -45.1 L 84.1 -45.1 Q 81.9 -44.1 79 -44.1 L 79 -44.1 L 79 -44.1 Q 76.1 -44.1 73.7 -44.8 L 73.7 -44.8 L 73.7 -44.8 Q 71.3 -45.6 69.8 -47.3 Z M 83.3 -73.2 L 83.3 -73.2 L 83.3 -73.2 Q 82.6 -72.1 82 -70.1 L 82 -70.1 L 82 -70.1 Q 81.3 -68.2 80.3 -63 L 80.3 -63 L 80.3 -63 Q 79.2 -57.8 79.2 -54 L 79.2 -54 L 79.2 -54 Q 79.2 -50.3 79.8 -49.2 L 79.8 -49.2 L 79.8 -49.2 Q 80.4 -48.2 81.4 -48.2 L 81.4 -48.2 L 81.4 -48.2 Q 83.4 -48.2 84.9 -50.1 L 84.9 -50.1 L 84.9 -50.1 Q 86.4 -52.1 87 -55.5 L 87 -55.5 L 90.4 -74.3 L 90.4 -74.3 Q 89.1 -75.4 87.5 -75.4 L 87.5 -75.4 L 87.5 -75.4 Q 85.9 -75.4 85 -74.9 L 85 -74.9 L 85 -74.9 Q 84.1 -74.4 83.3 -73.2 Z M 111.5 -72.1 L 111.5 -72.1 L 111.5 -72.1 Q 113.7 -75.2 117 -77.2 L 117 -77.2 L 117 -77.2 Q 120.3 -79.3 124.3 -79.3 L 124.3 -79.3 L 124.3 -79.3 Q 128.4 -79.3 130.3 -78 L 130.3 -78 L 142.8 -79.3 L 138.5 -54.7 L 138.5 -54.7 Q 136.2 -42.1 131.5 -37.2 L 131.5 -37.2 L 131.5 -37.2 Q 127 -32.5 118.1 -32.5 L 118.1 -32.5 L 118.1 -32.5 Q 111.4 -32.5 107.6 -34.6 L 107.6 -34.6 L 107.6 -34.6 Q 103.7 -36.8 103.7 -40.3 L 103.7 -40.3 L 103.7 -40.3 Q 103.7 -42.9 105.7 -44.4 L 105.7 -44.4 L 105.7 -44.4 Q 107.7 -45.9 110.8 -45.9 L 110.8 -45.9 L 110.8 -45.9 Q 113.4 -45.9 115.5 -44.7 L 115.5 -44.7 L 115.5 -44.7 Q 116.7 -44.1 117.3 -43.2 L 117.3 -43.2 L 117.3 -43.2 Q 115.8 -41.9 115.8 -39.8 L 115.8 -39.8 L 115.8 -39.8 Q 115.8 -37 118.4 -37 L 118.4 -37 L 118.4 -37 Q 122.7 -37 125.1 -47.1 L 125.1 -47.1 L 125.1 -47.1 Q 125.8 -49.9 126.4 -52.6 L 126.4 -52.6 L 126.4 -52.6 Q 123.5 -49.1 117 -49.1 L 117 -49.1 L 117 -49.1 Q 112.4 -49.1 109.8 -51.3 L 109.8 -51.3 L 109.8 -51.3 Q 107.2 -53.5 107.2 -58.6 L 107.2 -58.6 L 107.2 -58.6 Q 107.2 -61.8 108.3 -65.4 L 108.3 -65.4 L 108.3 -65.4 Q 109.4 -69 111.5 -72.1 Z M 119.8 -58.4 L 119.8 -58.4 L 119.8 -58.4 Q 119.8 -54 122.1 -54 L 122.1 -54 L 122.1 -54 Q 123.6 -54 125.1 -55.7 L 125.1 -55.7 L 125.1 -55.7 Q 126.2 -57 126.7 -59 L 126.7 -59 L 130 -75.5 L 130 -75.5 Q 129.6 -75.5 129.3 -75.7 L 129.3 -75.7 L 129.3 -75.7 Q 128.7 -75.9 127.8 -75.9 L 127.8 -75.9 L 127.8 -75.9 Q 123.9 -75.9 121.6 -69.5 L 121.6 -69.5 L 121.6 -69.5 Q 119.8 -64.5 119.8 -58.4 Z M 171.2 -56.2 L 171.2 -56.2 L 171.2 -56.2 Q 172.8 -55.1 172.8 -52.7 L 172.8 -52.7 L 172.8 -52.7 Q 172.8 -50.3 171.6 -48.7 L 171.6 -48.7 L 171.6 -48.7 Q 170.4 -47.2 168.4 -46.2 L 168.4 -46.2 L 168.4 -46.2 Q 164.3 -44.1 159.9 -44.1 L 159.9 -44.1 L 159.9 -44.1 Q 155.5 -44.1 152.9 -45 L 152.9 -45 L 152.9 -45 Q 150.3 -46 148.6 -47.8 L 148.6 -47.8 L 148.6 -47.8 Q 145.2 -51.2 145.2 -57.4 L 145.2 -57.4 L 145.2 -57.4 Q 145.2 -67 150.4 -72.9 L 150.4 -72.9 L 150.4 -72.9 Q 156.1 -79.3 165.9 -79.3 L 165.9 -79.3 L 165.9 -79.3 Q 171.9 -79.3 175 -76.7 L 175 -76.7 L 175 -76.7 Q 177.2 -74.8 177.2 -71.6 L 177.2 -71.6 L 177.2 -71.6 Q 177.2 -60.4 157.7 -60.4 L 157.7 -60.4 L 157.7 -60.4 Q 157.5 -58.7 157.5 -57.3 L 157.5 -57.3 L 157.5 -57.3 Q 157.5 -54.4 158.8 -53.2 L 158.8 -53.2 L 158.8 -53.2 Q 160.1 -52.1 162.5 -52.1 L 162.5 -52.1 L 162.5 -52.1 Q 165 -52.1 167.6 -53.2 L 167.6 -53.2 L 167.6 -53.2 Q 170.2 -54.4 171.2 -56.2 Z M 158.2 -63.1 L 158.2 -63.1 L 158.2 -63.1 Q 162.7 -63.1 165.4 -65.9 L 165.4 -65.9 L 165.4 -65.9 Q 168 -68.6 168 -72.9 L 168 -72.9 L 168 -72.9 Q 168 -74.4 167.4 -75.2 L 167.4 -75.2 L 167.4 -75.2 Q 166.9 -76 165.8 -76 L 165.8 -76 L 165.8 -76 Q 164.7 -76 163.8 -75.6 L 163.8 -75.6 L 163.8 -75.6 Q 162.9 -75.2 161.9 -73.8 L 161.9 -73.8 L 161.9 -73.8 Q 159.5 -70.6 158.2 -63.1 Z M 198.5 -67.8 L 198.5 -67.8 L 198.5 -67.8 Q 199.4 -70.2 199.4 -72.2 L 199.4 -72.2 L 199.4 -72.2 Q 199.4 -76 196.3 -76 L 196.3 -76 L 196.3 -76 Q 194.7 -76 193.4 -74.6 L 193.4 -74.6 L 193.4 -74.6 Q 192.1 -73.1 192.1 -71.3 L 192.1 -71.3 L 192.1 -71.3 Q 192.1 -70 193.1 -69 L 193.1 -69 L 193.1 -69 Q 194.6 -67.6 198.4 -65.3 L 198.4 -65.3 L 198.4 -65.3 Q 202.2 -63 203.6 -61.1 L 203.6 -61.1 L 203.6 -61.1 Q 205 -59.2 205 -56.6 L 205 -56.6 L 205 -56.6 Q 205 -54 203.8 -51.7 L 203.8 -51.7 L 203.8 -51.7 Q 202.5 -49.3 200.3 -47.6 L 200.3 -47.6 L 200.3 -47.6 Q 195.5 -44.1 187.8 -44.1 L 187.8 -44.1 L 187.8 -44.1 Q 183.7 -44.1 180.5 -46.2 L 180.5 -46.2 L 180.5 -46.2 Q 177.3 -48.3 177.3 -50.8 L 177.3 -50.8 L 177.3 -50.8 Q 177.3 -53.3 179.1 -54.8 L 179.1 -54.8 L 179.1 -54.8 Q 180.9 -56.3 183.6 -56.3 L 183.6 -56.3 L 183.6 -56.3 Q 186.3 -56.3 187.9 -55.3 L 187.9 -55.3 L 187.9 -55.3 Q 187.1 -53.1 187.1 -51.7 L 187.1 -51.7 L 187.1 -51.7 Q 187.1 -47.5 190.7 -47.5 L 190.7 -47.5 L 190.7 -47.5 Q 192.2 -47.5 193.3 -48.5 L 193.3 -48.5 L 193.3 -48.5 Q 194.3 -49.4 194.3 -51.1 L 194.3 -51.1 L 194.3 -51.1 Q 194.3 -54.4 188.8 -57.8 L 188.8 -57.8 L 188.8 -57.8 Q 184.3 -60.8 183.3 -61.9 L 183.3 -61.9 L 183.3 -61.9 Q 181.5 -64 181.5 -66.5 L 181.5 -66.5 L 181.5 -66.5 Q 181.5 -69.1 182.8 -71.5 L 182.8 -71.5 L 182.8 -71.5 Q 184 -73.9 186.2 -75.7 L 186.2 -75.7 L 186.2 -75.7 Q 190.9 -79.3 199 -79.3 L 199 -79.3 L 199 -79.3 Q 203.2 -79.3 205.6 -77.6 L 205.6 -77.6 L 205.6 -77.6 Q 208.1 -75.9 208.1 -73.1 L 208.1 -73.1 L 208.1 -73.1 Q 208.1 -70.3 206.4 -68.7 L 206.4 -68.7 L 206.4 -68.7 Q 204.7 -67.1 201.6 -67.1 L 201.6 -67.1 L 201.6 -67.1 Q 199.5 -67.1 198.5 -67.8 Z M 249.6 -65.9 L 262.5 -67.1 L 262.5 -67.1 Q 257.9 -57 257.9 -45.3 L 257.9 -45.3 L 257.9 -45.3 Q 256.2 -44.1 253.6 -44.1 L 253.6 -44.1 L 253.6 -44.1 Q 251.1 -44.1 249.5 -45.2 L 249.5 -45.2 L 249.5 -45.2 Q 247.9 -46.4 247.6 -47.6 L 247.6 -47.6 L 247.6 -47.6 Q 246 -46 243.4 -45 L 243.4 -45 L 243.4 -45 Q 240.8 -44.1 238.1 -44.1 L 238.1 -44.1 L 238.1 -44.1 Q 235.3 -44.1 232.9 -45 L 232.9 -45 L 232.9 -45 Q 230.5 -45.8 228.6 -47.8 L 228.6 -47.8 L 228.6 -47.8 Q 224.6 -52.2 224.6 -60.4 L 224.6 -60.4 L 224.6 -60.4 Q 224.6 -73.2 231.4 -80.9 L 231.4 -80.9 L 231.4 -80.9 Q 238.4 -88.9 250.9 -88.9 L 250.9 -88.9 L 250.9 -88.9 Q 259.6 -88.9 262.6 -84.4 L 262.6 -84.4 L 262.6 -84.4 Q 263.6 -83 263.6 -81.3 L 263.6 -81.3 L 263.6 -81.3 Q 263.6 -79.6 262.9 -78.1 L 262.9 -78.1 L 262.9 -78.1 Q 262.1 -76.7 261 -75.5 L 261 -75.5 L 261 -75.5 Q 258.2 -73 254.8 -73 L 254.8 -73 L 254.8 -73 Q 253.5 -73 252.2 -73.4 L 252.2 -73.4 L 252.2 -73.4 Q 252.5 -75.4 252.5 -77.6 L 252.5 -77.6 L 252.5 -77.6 Q 252.5 -79.8 252.3 -80.9 L 252.3 -80.9 L 252.3 -80.9 Q 252.1 -81.9 251.8 -82.7 L 251.8 -82.7 L 251.8 -82.7 Q 250.9 -84.4 249.1 -84.4 L 249.1 -84.4 L 249.1 -84.4 Q 247.3 -84.4 245.3 -82.5 L 245.3 -82.5 L 245.3 -82.5 Q 243.2 -80.5 241.6 -77.3 L 241.6 -77.3 L 241.6 -77.3 Q 238.1 -70.2 238.1 -61.5 L 238.1 -61.5 L 238.1 -61.5 Q 238.1 -57.6 239.7 -54.7 L 239.7 -54.7 L 239.7 -54.7 Q 241.3 -51.7 244.3 -51.7 L 244.3 -51.7 L 244.3 -51.7 Q 245.3 -51.7 246.2 -52.2 L 246.2 -52.2 L 246.2 -52.2 Q 247.1 -52.7 247.5 -53.1 L 247.5 -53.1 L 249.6 -65.9 Z M 268.4 -47.3 L 268.4 -47.3 L 268.4 -47.3 Q 266.9 -48.9 266.2 -51.5 L 266.2 -51.5 L 266.2 -51.5 Q 265.6 -54.2 265.6 -58.5 L 265.6 -58.5 L 265.6 -58.5 Q 265.6 -62.7 267 -66.6 L 267 -66.6 L 267 -66.6 Q 268.5 -70.6 271.2 -73.4 L 271.2 -73.4 L 271.2 -73.4 Q 276.7 -79.3 285.8 -79.3 L 285.8 -79.3 L 285.8 -79.3 Q 289.1 -79.3 291.4 -78.2 L 291.4 -78.2 L 302.4 -79.3 L 297.6 -54.3 L 297.6 -54.3 Q 297.4 -53.5 297.4 -52.1 L 297.4 -52.1 L 297.4 -52.1 Q 297.4 -50.7 298.3 -49.8 L 298.3 -49.8 L 298.3 -49.8 Q 299.2 -48.9 300.5 -48.8 L 300.5 -48.8 L 300.5 -48.8 Q 299.8 -46.6 297.5 -45.3 L 297.5 -45.3 L 297.5 -45.3 Q 295.1 -44.1 292.5 -44.1 L 292.5 -44.1 L 292.5 -44.1 Q 289.9 -44.1 288.1 -45 L 288.1 -45 L 288.1 -45 Q 286.4 -46 285.9 -47.7 L 285.9 -47.7 L 285.9 -47.7 Q 284.8 -46.1 282.7 -45.1 L 282.7 -45.1 L 282.7 -45.1 Q 280.5 -44.1 277.6 -44.1 L 277.6 -44.1 L 277.6 -44.1 Q 274.7 -44.1 272.3 -44.8 L 272.3 -44.8 L 272.3 -44.8 Q 269.9 -45.6 268.4 -47.3 Z M 281.9 -73.2 L 281.9 -73.2 L 281.9 -73.2 Q 281.2 -72.1 280.6 -70.1 L 280.6 -70.1 L 280.6 -70.1 Q 279.9 -68.2 278.9 -63 L 278.9 -63 L 278.9 -63 Q 277.8 -57.8 277.8 -54 L 277.8 -54 L 277.8 -54 Q 277.8 -50.3 278.4 -49.2 L 278.4 -49.2 L 278.4 -49.2 Q 279 -48.2 280 -48.2 L 280 -48.2 L 280 -48.2 Q 282 -48.2 283.5 -50.1 L 283.5 -50.1 L 283.5 -50.1 Q 285 -52.1 285.6 -55.5 L 285.6 -55.5 L 289 -74.3 L 289 -74.3 Q 287.7 -75.4 286.1 -75.4 L 286.1 -75.4 L 286.1 -75.4 Q 284.5 -75.4 283.6 -74.9 L 283.6 -74.9 L 283.6 -74.9 Q 282.7 -74.4 281.9 -73.2 Z M 321.1 -48.9 L 321.1 -48.9 L 321.1 -48.9 Q 319.1 -44.1 312.8 -44.1 L 312.8 -44.1 L 312.8 -44.1 Q 309.6 -44.1 307.6 -46.3 L 307.6 -46.3 L 307.6 -46.3 Q 305.9 -48.2 305.9 -50.3 L 305.9 -50.3 L 305.9 -50.3 Q 305.9 -55.1 308.1 -65.6 L 308.1 -65.6 L 312.8 -90.1 L 325.8 -91.4 L 319.6 -59 L 319.6 -59 Q 318.5 -54.3 318.5 -52.6 L 318.5 -52.6 L 318.5 -52.6 Q 318.5 -49 321.1 -48.9 Z M 341.9 -48.9 L 341.9 -48.9 L 341.9 -48.9 Q 339.9 -44.1 333.5 -44.1 L 333.5 -44.1 L 333.5 -44.1 Q 330.3 -44.1 328.3 -46.3 L 328.3 -46.3 L 328.3 -46.3 Q 326.6 -48.2 326.6 -50.3 L 326.6 -50.3 L 326.6 -50.3 Q 326.6 -55.1 328.9 -65.6 L 328.9 -65.6 L 333.5 -90.1 L 346.5 -91.4 L 340.3 -59 L 340.3 -59 Q 339.2 -54.3 339.2 -52.6 L 339.2 -52.6 L 339.2 -52.6 Q 339.2 -49 341.9 -48.9 Z M 373.2 -56.2 L 373.2 -56.2 L 373.2 -56.2 Q 374.8 -55.1 374.8 -52.7 L 374.8 -52.7 L 374.8 -52.7 Q 374.8 -50.3 373.6 -48.7 L 373.6 -48.7 L 373.6 -48.7 Q 372.4 -47.2 370.4 -46.2 L 370.4 -46.2 L 370.4 -46.2 Q 366.3 -44.1 361.9 -44.1 L 361.9 -44.1 L 361.9 -44.1 Q 357.5 -44.1 354.9 -45 L 354.9 -45 L 354.9 -45 Q 352.3 -46 350.6 -47.8 L 350.6 -47.8 L 350.6 -47.8 Q 347.2 -51.2 347.2 -57.4 L 347.2 -57.4 L 347.2 -57.4 Q 347.2 -67 352.4 -72.9 L 352.4 -72.9 L 352.4 -72.9 Q 358.1 -79.3 367.8 -79.3 L 367.8 -79.3 L 367.8 -79.3 Q 373.9 -79.3 376.9 -76.7 L 376.9 -76.7 L 376.9 -76.7 Q 379.2 -74.8 379.2 -71.6 L 379.2 -71.6 L 379.2 -71.6 Q 379.2 -60.4 359.7 -60.4 L 359.7 -60.4 L 359.7 -60.4 Q 359.5 -58.7 359.5 -57.3 L 359.5 -57.3 L 359.5 -57.3 Q 359.5 -54.4 360.8 -53.2 L 360.8 -53.2 L 360.8 -53.2 Q 362.1 -52.1 364.5 -52.1 L 364.5 -52.1 L 364.5 -52.1 Q 367 -52.1 369.5 -53.2 L 369.5 -53.2 L 369.5 -53.2 Q 372.1 -54.4 373.2 -56.2 Z M 360.2 -63.1 L 360.2 -63.1 L 360.2 -63.1 Q 364.7 -63.1 367.3 -65.9 L 367.3 -65.9 L 367.3 -65.9 Q 370 -68.6 370 -72.9 L 370 -72.9 L 370 -72.9 Q 370 -74.4 369.4 -75.2 L 369.4 -75.2 L 369.4 -75.2 Q 368.9 -76 367.8 -76 L 367.8 -76 L 367.8 -76 Q 366.7 -76 365.8 -75.6 L 365.8 -75.6 L 365.8 -75.6 Q 364.8 -75.2 363.9 -73.8 L 363.9 -73.8 L 363.9 -73.8 Q 361.5 -70.6 360.2 -63.1 Z M 401.4 -63.3 L 401.4 -63.3 L 401.4 -63.3 Q 403.7 -67.4 403.7 -71.6 L 403.7 -71.6 L 403.7 -71.6 Q 403.7 -74.3 401.7 -74.3 L 401.7 -74.3 L 401.7 -74.3 Q 400.2 -74.3 398.6 -71.7 L 398.6 -71.7 L 398.6 -71.7 Q 396.9 -69.1 396.4 -65.7 L 396.4 -65.7 L 393.1 -45.3 L 379.8 -44.1 L 386.3 -78 L 396.9 -79.3 L 395.8 -72.8 L 395.8 -72.8 Q 398.9 -79.3 405.9 -79.3 L 405.9 -79.3 L 405.9 -79.3 Q 409.6 -79.3 411.7 -77.3 L 411.7 -77.3 L 411.7 -77.3 Q 413.7 -75.4 413.7 -71.5 L 413.7 -71.5 L 413.7 -71.5 Q 413.7 -67.5 411.1 -65 L 411.1 -65 L 411.1 -65 Q 408.5 -62.6 404.1 -62.6 L 404.1 -62.6 L 404.1 -62.6 Q 402.2 -62.6 401.4 -63.3 Z M 435 -52.6 L 435 -52.6 L 435 -52.6 Q 431.7 -49.1 425.6 -49.1 L 425.6 -49.1 L 425.6 -49.1 Q 418 -49.1 416.4 -54.7 L 416.4 -54.7 L 416.4 -54.7 Q 415.9 -56.3 415.9 -58.2 L 415.9 -58.2 L 415.9 -58.2 Q 415.9 -60.1 416.3 -62 L 416.3 -62 L 419.3 -78 L 432.3 -79.3 L 428.8 -60.6 L 428.8 -60.6 Q 428.6 -59.8 428.5 -58.9 L 428.5 -58.9 L 428.5 -58.9 Q 428.3 -58 428.3 -57.1 L 428.3 -57.1 L 428.3 -57.1 Q 428.3 -56.2 428.6 -55.5 L 428.6 -55.5 L 428.6 -55.5 Q 428.9 -54.9 429.4 -54.6 L 429.4 -54.6 L 429.4 -54.6 Q 430.1 -54 431.5 -54 L 431.5 -54 L 431.5 -54 Q 432.9 -54 434.1 -55.7 L 434.1 -55.7 L 434.1 -55.7 Q 435.2 -57.4 435.8 -60.2 L 435.8 -60.2 L 439.3 -78 L 451.9 -79.3 L 447.1 -54.1 L 447.1 -54.1 Q 444.8 -41.8 439.9 -37 L 439.9 -37 L 439.9 -37 Q 437.4 -34.5 434.2 -33.5 L 434.2 -33.5 L 434.2 -33.5 Q 431 -32.5 426.8 -32.5 L 426.8 -32.5 L 426.8 -32.5 Q 420.1 -32.5 416.2 -34.6 L 416.2 -34.6 L 416.2 -34.6 Q 412.4 -36.7 412.4 -40.2 L 412.4 -40.2 L 412.4 -40.2 Q 412.4 -42.8 414.4 -44.3 L 414.4 -44.3 L 414.4 -44.3 Q 416.4 -45.8 419.4 -45.8 L 419.4 -45.8 L 419.4 -45.8 Q 422.1 -45.8 424.2 -44.7 L 424.2 -44.7 L 424.2 -44.7 Q 425.4 -44 426 -43.1 L 426 -43.1 L 426 -43.1 Q 424.5 -41.8 424.5 -39.7 L 424.5 -39.7 L 424.5 -39.7 Q 424.5 -36.9 427 -36.9 L 427 -36.9 L 427 -36.9 Q 431.3 -36.9 433.7 -46.6 L 433.7 -46.6 L 433.7 -46.6 Q 434.4 -49.5 435 -52.6 Z" fill="url(#editing-gradient-gradient)"></path></g></g><style>text {
  font-size: 64px;
  font-family: Arial Black;
  dominant-baseline: central;
  text-anchor: middle;
}</style></svg>